<svg xmlns="http://www.w3.org/2000/svg" xmlns:xlink="http://www.w3.org/1999/xlink" viewBox="0 0 287.3 54.84"><defs><style>.cls-1,.cls-3{fill:#575756;}.cls-2{fill:url(#New_Gradient_Swatch);}.cls-3{font-size:12.25px;font-family:Montserrat-Regular, Montserrat;letter-spacing:0.56em;}.cls-4{letter-spacing:0.49em;}.cls-5{letter-spacing:0.56em;}</style><linearGradient id="New_Gradient_Swatch" x1="127.97" y1="18.42" x2="159.41" y2="18.42" gradientUnits="userSpaceOnUse"><stop offset="0" stop-color="#969596"/><stop offset="0.57" stop-color="#d1d1d1"/><stop offset="1" stop-color="#9a9a9a"/></linearGradient></defs><g id="Capa_2" data-name="Capa 2"><g id="Capa_1-2" data-name="Capa 1"><path class="cls-1" d="M21.43,35.32a19,19,0,0,0,.63-4.27V18.13a19,19,0,0,0-.63-4.27v-.09H26v.09a18.56,18.56,0,0,0-.66,4.27V31.05A18.56,18.56,0,0,0,26,35.32v.09h-4.6Z"/><path class="cls-1" d="M47,31.16v4.42H33.23v-.09a19.16,19.16,0,0,0,.63-4.27V18.29A19.06,19.06,0,0,0,33.23,14v-.09h4.6V14a18.66,18.66,0,0,0-.66,4.27V34.46h4.39c2.22,0,4.51-2.73,5.26-3.3Z"/><path class="cls-1" d="M67.82,13.86a38.28,38.28,0,0,0-2.35,5.2L59.7,35.41h-3L50.26,18.25a25.45,25.45,0,0,0-2.14-4.36v-.12h5.33v.12a8.26,8.26,0,0,0,.42,4.42l5.47,14.58,4.81-13.74a9,9,0,0,0,.27-5.26v-.12h3.4Z"/><path class="cls-1" d="M167.5,35.75h9.83c5.75,0,9.12-2.43,9.12-6.31,0-3.49-3.11-5.21-7.83-5.21v-.06c3.89-.45,6.2-2.37,6.2-5.23,0-3.54-3.23-4.86-8.34-4.86h-9v.86l1.28.09c.92.08,1.26.22,1.26,1.22V33.58c0,1-.34,1.15-1.26,1.23l-1.28.09Zm6.26-12V15.14h2.43c3.29,0,4.75,1.4,4.75,4.26s-1.4,4.35-4.49,4.35Zm0,11V24.8h2.83c3.57,0,5.78,1.29,5.78,4.92s-2.06,5-6,5Z"/><path class="cls-1" d="M193.34,35.75H211.1l2-7.06h-.6L208,34.24c-.31.34-.34.4-.83.4h-7.54V25.12h3.8c.37,0,.46,0,.57.34L205.21,29h.6V20h-.6L204,23.52c-.08.25-.2.34-.57.34h-3.8V15.2h6.2c.54,0,.63,0,.94.48l3.44,5.44h.6l-1-7H193.34v.86l1.29.09c.92.08,1.26.22,1.26,1.22V33.58c0,1-.34,1.15-1.26,1.23l-1.29.09Z"/><path class="cls-1" d="M229.08,12.85h-.48l-8.47,20.82c-.34.88-.74,1.06-1.65,1.14l-1.09.09v.85h6.4V34.9l-1.34-.09c-.94-.08-1.29-.26-.94-1.14l2.17-5.46h7.75l2.17,5.46c.34.88,0,1.06-1,1.14l-1.34.09v.85h9V34.9l-1.11-.09c-.92-.08-1.32-.26-1.66-1.14Zm-1.51,5.58,3.32,8.38h-6.67Z"/><path class="cls-1" d="M245.52,35.75h8.84V34.9l-1.29-.09c-.94-.08-1.28-.23-1.28-1.23V25.15h1.4l9.2,10.6h4.69l-9.69-11.06c4-.66,5.89-2.63,5.89-5.38,0-4-3.75-5.23-9.15-5.23h-8.61v.86l1.29.09c.92.08,1.26.22,1.26,1.22V33.58c0,1-.34,1.15-1.26,1.23l-1.29.09Zm6.27-11.69V15.14h2.11c3.46,0,5.29,1.4,5.29,4.46s-1.83,4.46-5.29,4.46Z"/><path class="cls-1" d="M279.32,36.1c4.12,0,8-2.43,8-6.44s-2.89-5.54-6.89-6.91l-1.55-.55c-2.43-.88-3.4-2.11-3.4-4.06,0-2.17,2.09-3.46,4.4-3.46a6.36,6.36,0,0,1,1.32.12c.46.11.68.17,1.14.85l3.35,4.92h.6l-1.2-6.26a12.93,12.93,0,0,0-4.69-.77c-4,0-7.89,2-7.89,6,0,3.24,1.91,5.21,5.34,6.44l1.55.54c3.08,1.09,4.89,2.32,4.89,4.78S282.15,35,279.41,35a6.76,6.76,0,0,1-1.92-.23,2.15,2.15,0,0,1-1.23-1l-3.43-5.43h-.6l1.26,6.89A16.45,16.45,0,0,0,279.32,36.1Z"/><path class="cls-1" d="M7.09,36.1c4.12,0,8-2.43,8-6.44s-2.89-5.54-6.89-6.91L6.63,22.2c-2.43-.88-3.4-2.11-3.4-4.06,0-2.17,2.09-3.46,4.4-3.46A6.36,6.36,0,0,1,9,14.8a1.5,1.5,0,0,1,1.14.85l3.35,4.92H14l-1.2-6.26a12.9,12.9,0,0,0-4.69-.77c-4,0-7.89,2-7.89,6,0,3.24,1.91,5.21,5.34,6.44l1.55.54C10.24,27.58,12,28.81,12,31.27S9.92,35,7.18,35a6.76,6.76,0,0,1-1.92-.23,2.15,2.15,0,0,1-1.23-1L.6,28.32H0l1.26,6.89A16.45,16.45,0,0,0,7.09,36.1Z"/><path class="cls-2" d="M128,0h17.15a8.24,8.24,0,0,1,4.63,15.09l-.32.21a.67.67,0,0,0,.19,0,10.75,10.75,0,0,1,2,21c-2.49.7-5.12.36-7.67.41,1.41-4.55,3.23-6.93,8.34-6.67.26,0,.51,0,.76-.05a1.55,1.55,0,0,0,1.28-1c.6-1.37,1.16-2.76,1.74-4.15l0-.13c-2.2-.72-4.29-1.74-6.43-2.67l.55-1.42a3,3,0,0,0-.3-.16,13.81,13.81,0,0,0-3.87-1.1,24.14,24.14,0,0,0-3.63-.26,2.29,2.29,0,0,0-.08-.28,2.41,2.41,0,0,0-4.65-.08c-.05.19-.09.38-.13.58l-.13,0a13.55,13.55,0,0,0-5.83,3.23,19.77,19.77,0,0,0-3.46,4.22l-.16.26s0,0-.07,0Zm13.27,2.07c-.07.16-.13.26-.17.36-.56,1.23-1.12,2.47-1.67,3.71a.8.8,0,0,1-.45.45l-3.74,1.69-.32.16.31.16c1.25.56,2.49,1.13,3.74,1.68a.85.85,0,0,1,.46.45c.55,1.25,1.12,2.49,1.68,3.74,0,.09.1.19.17.32.07-.14.12-.24.16-.34.56-1.24,1.13-2.47,1.67-3.71a.79.79,0,0,1,.46-.45l3.73-1.69.33-.16-.35-.17-3.73-1.69a.74.74,0,0,1-.42-.41c-.55-1.24-1.12-2.49-1.68-3.73Z"/><path class="cls-1" d="M71.91,35.43H89.66l2-7.07h-.6l-4.54,5.55c-.32.34-.35.4-.83.4H78.17V24.79H82c.37,0,.46,0,.57.34l1.23,3.55h.6v-9h-.6l-1.23,3.55c-.08.26-.2.34-.57.34h-3.8V14.87h6.2c.55,0,.63,0,.95.48l3.43,5.44h.6l-1-7H71.91v.86l1.28.09c.92.08,1.26.23,1.26,1.23V33.25c0,1-.34,1.15-1.26,1.23l-1.28.09Z"/><path class="cls-1" d="M95.86,35.43h8.84v-.86l-1.29-.09c-.94-.08-1.28-.23-1.28-1.23V24.82h1.4l9.2,10.61h4.69l-9.69-11.07c4-.66,5.89-2.63,5.89-5.37,0-4-3.75-5.24-9.15-5.24H95.86v.86l1.29.09c.92.08,1.26.23,1.26,1.23V33.25c0,1-.34,1.15-1.26,1.23l-1.29.09Zm6.27-11.7V14.81h2.11c3.46,0,5.29,1.4,5.29,4.46s-1.83,4.46-5.29,4.46Z"/><text class="cls-3" transform="translate(71.45 51.76)">REAL ES<tspan class="cls-4" x="99.34" y="0">TA</tspan><tspan class="cls-5" x="127.51" y="0">TE</tspan></text></g></g></svg>